<svg xmlns="http://www.w3.org/2000/svg" width="19.438" height="23.22"><path d="M19.425 16.96a4.241 4.241 0 0 1-2.2-1.75 5.335 5.335 0 0 1-.962-3.11 4.961 4.961 0 0 1 .906-2.89 9.088 9.088 0 0 1 1.59-1.65 7.082 7.082 0 0 0-1.45-1.39 5.093 5.093 0 0 0-2.971-.91 7.818 7.818 0 0 0-2.413.48 6.963 6.963 0 0 1-1.994.47 8.847 8.847 0 0 1-1.925-.42 9.158 9.158 0 0 0-2.468-.42 4.814 4.814 0 0 0-3.961 2.01A8.26 8.26 0 0 0 .001 12.6a14.23 14.23 0 0 0 2.05 7.01c1.381 2.4 2.762 3.62 4.2 3.62a5.127 5.127 0 0 0 1.841-.48 5.346 5.346 0 0 1 1.98-.46 6.138 6.138 0 0 1 2.106.45 6.456 6.456 0 0 0 1.953.44c1.185 0 2.385-.9 3.584-2.73a13.862 13.862 0 0 0 1.71-3.49zM14.181.6c0-.09-.014-.18-.014-.27s-.042-.19-.07-.31a5.562 5.562 0 0 0-3.487 2.06 6.409 6.409 0 0 0-1.088 3.59 7.469 7.469 0 0 0 1.451-.24 3.992 3.992 0 0 0 1.506-1 5.756 5.756 0 0 0 1.3-1.93 5.305 5.305 0 0 0 .405-1.9z" fill="#c5c5c5" fill-rule="evenodd"/></svg>